<svg width="210" height="59" viewBox="0 0 210 59" fill="none" xmlns="http://www.w3.org/2000/svg">
<path d="M66.513 44.43C64.3057 44.43 62.385 43.9857 60.751 43.097C59.117 42.1797 57.8557 40.8897 56.967 39.227C56.0783 37.5643 55.634 35.615 55.634 33.379C55.634 31.143 56.0783 29.2223 56.967 27.617C57.8557 25.983 59.117 24.736 60.751 23.876C62.385 22.9873 64.3057 22.543 66.513 22.543C67.8603 22.543 69.1933 22.758 70.512 23.188C71.8307 23.618 72.92 24.22 73.78 24.994L72.189 28.735C71.4437 28.0757 70.598 27.574 69.652 27.23C68.7347 26.886 67.846 26.714 66.986 26.714C65.1227 26.714 63.675 27.3017 62.643 28.477C61.6397 29.6237 61.138 31.272 61.138 33.422C61.138 35.5433 61.6397 37.2203 62.643 38.453C63.675 39.657 65.1227 40.259 66.986 40.259C67.8173 40.259 68.706 40.087 69.652 39.743C70.598 39.399 71.4437 38.883 72.189 38.195L73.78 41.979C72.92 42.7243 71.8163 43.3263 70.469 43.785C69.1503 44.215 67.8317 44.43 66.513 44.43ZM86.2463 44.43C84.0676 44.43 82.1756 43.9857 80.5703 43.097C78.965 42.2083 77.718 40.947 76.8293 39.313C75.9406 37.6503 75.4963 35.701 75.4963 33.465C75.4963 31.229 75.9406 29.294 76.8293 27.66C77.718 26.026 78.965 24.7647 80.5703 23.876C82.1756 22.9873 84.0676 22.543 86.2463 22.543C88.425 22.543 90.317 22.9873 91.9223 23.876C93.5276 24.7647 94.7746 26.026 95.6633 27.66C96.552 29.294 96.9963 31.229 96.9963 33.465C96.9963 35.701 96.552 37.6503 95.6633 39.313C94.7746 40.947 93.5276 42.2083 91.9223 43.097C90.317 43.9857 88.425 44.43 86.2463 44.43ZM86.2463 40.345C87.8516 40.345 89.1416 39.7717 90.1163 38.625C91.091 37.4497 91.5783 35.7297 91.5783 33.465C91.5783 31.1717 91.091 29.466 90.1163 28.348C89.1416 27.2013 87.8516 26.628 86.2463 26.628C84.641 26.628 83.351 27.2013 82.3763 28.348C81.4016 29.466 80.9143 31.1717 80.9143 33.465C80.9143 35.7297 81.4016 37.4497 82.3763 38.625C83.351 39.7717 84.641 40.345 86.2463 40.345ZM101.433 51.74V22.973H106.679V27.402H106.249C106.679 25.94 107.553 24.7647 108.872 23.876C110.219 22.9873 111.781 22.543 113.559 22.543C115.393 22.543 116.999 22.9873 118.375 23.876C119.779 24.7647 120.869 26.026 121.643 27.66C122.417 29.2653 122.804 31.2003 122.804 33.465C122.804 35.701 122.417 37.6503 121.643 39.313C120.869 40.947 119.794 42.2083 118.418 43.097C117.042 43.9857 115.422 44.43 113.559 44.43C111.81 44.43 110.276 44 108.958 43.14C107.639 42.2513 106.75 41.1047 106.292 39.7H106.808V51.74H101.433ZM112.054 40.345C113.659 40.345 114.949 39.7717 115.924 38.625C116.898 37.4497 117.386 35.7297 117.386 33.465C117.386 31.1717 116.898 29.466 115.924 28.348C114.949 27.2013 113.659 26.628 112.054 26.628C110.448 26.628 109.158 27.2013 108.184 28.348C107.209 29.466 106.722 31.1717 106.722 33.465C106.722 35.7297 107.209 37.4497 108.184 38.625C109.158 39.7717 110.448 40.345 112.054 40.345ZM128.688 51.74L133.074 42.065V44.301L123.829 22.973H129.548L136.084 39.27H134.794L141.459 22.973H146.877L134.235 51.74H128.688ZM149.43 44V22.973H154.676V28.047H154.246C154.647 26.327 155.435 25.0227 156.611 24.134C157.786 23.2167 159.348 22.6863 161.298 22.543L162.932 22.414L163.276 26.972L160.18 27.273C158.431 27.445 157.112 27.9897 156.224 28.907C155.335 29.7957 154.891 31.057 154.891 32.691V44H149.43Z" fill="#1E1E1E"/>
<path d="M164.119 44L165.065 38.023H171.085L170.139 44H164.119ZM182.313 44.43C181.023 44.43 179.847 44.1433 178.787 43.57C177.726 42.968 176.866 42.1797 176.207 41.205C175.576 40.2303 175.261 39.141 175.261 37.937C175.261 36.4463 175.676 35.2423 176.508 34.325C177.339 33.379 178.629 32.6767 180.378 32.218C182.126 31.7593 184.362 31.53 187.086 31.53H190.526L190.053 34.626H187.344C185.652 34.626 184.305 34.712 183.302 34.884C182.298 35.056 181.582 35.357 181.152 35.787C180.722 36.217 180.507 36.819 180.507 37.593C180.507 38.5963 180.836 39.3703 181.496 39.915C182.184 40.4597 183.015 40.732 183.99 40.732C184.907 40.732 185.738 40.5457 186.484 40.173C187.229 39.7717 187.86 39.2127 188.376 38.496C188.892 37.7507 189.221 36.8763 189.365 35.873L190.182 30.756C190.411 29.4087 190.196 28.3767 189.537 27.66C188.906 26.9433 187.788 26.585 186.183 26.585C184.921 26.585 183.689 26.757 182.485 27.101C181.309 27.445 180.134 27.9897 178.959 28.735L177.755 25.037C178.471 24.521 179.317 24.0767 180.292 23.704C181.295 23.3313 182.356 23.0447 183.474 22.844C184.62 22.6433 185.753 22.543 186.871 22.543C189.135 22.543 190.913 22.9587 192.203 23.79C193.493 24.6213 194.367 25.7537 194.826 27.187C195.284 28.6203 195.37 30.2543 195.084 32.089L193.192 44H188.161L188.849 39.528H189.279C188.877 40.646 188.304 41.5777 187.559 42.323C186.842 43.0397 186.025 43.57 185.108 43.914C184.219 44.258 183.287 44.43 182.313 44.43ZM202.431 18.458L203.291 13.212H209.268L208.408 18.458H202.431ZM198.647 44L202.001 22.973H207.376L204.022 44H198.647Z" fill="url(#paint0_linear_19_13)"/>
<path d="M24 6C37.2548 6 48 16.7452 48 30C48 43.2548 37.2548 54 24 54C10.7452 54 0 43.2548 0 30C1.31679e-06 16.7452 10.7452 6 24 6ZM24 7.91016C11.8003 7.91016 1.91016 17.8003 1.91016 30C1.91016 42.1997 11.8003 52.0898 24 52.0898C36.1997 52.0898 46.0898 42.1997 46.0898 30C46.0898 17.8003 36.1997 7.91016 24 7.91016Z" fill="url(#paint1_linear_19_13)"/>
<path d="M24.72 42.35C22.55 42.35 20.6133 41.9417 18.91 41.125C17.23 40.285 15.9 39.0367 14.92 37.38C13.9633 35.7233 13.485 33.6467 13.485 31.15C13.485 29.1433 13.7767 27.2883 14.36 25.585C14.9667 23.8583 15.83 22.3533 16.95 21.07C18.0933 19.7867 19.4933 18.7833 21.15 18.06C22.8067 17.3367 24.685 16.975 26.785 16.975C28.4883 16.975 30.0633 17.2433 31.51 17.78C32.9567 18.3167 34.1117 19.0283 34.975 19.915L33.155 23.485C32.2217 22.645 31.2183 22.015 30.145 21.595C29.0717 21.175 27.9167 20.965 26.68 20.965C24.8833 20.965 23.355 21.4083 22.095 22.295C20.835 23.1583 19.8783 24.3483 19.225 25.865C18.5717 27.3817 18.245 29.0967 18.245 31.01C18.245 32.7367 18.5017 34.1483 19.015 35.245C19.5517 36.3183 20.3333 37.1117 21.36 37.625C22.41 38.115 23.6933 38.36 25.21 38.36C26.3067 38.36 27.38 38.1733 28.43 37.8C29.48 37.4267 30.5533 36.82 31.65 35.98L32.945 39.515C32.2683 40.1217 31.475 40.635 30.565 41.055C29.6783 41.475 28.7333 41.79 27.73 42C26.7267 42.2333 25.7233 42.35 24.72 42.35Z" fill="url(#paint2_linear_19_13)"/>
<defs>
<linearGradient id="paint0_linear_19_13" x1="131.5" y1="0" x2="131.5" y2="59" gradientUnits="userSpaceOnUse">
<stop offset="0.375" stop-color="#E84499"/>
<stop offset="1" stop-color="#401BE3"/>
</linearGradient>
<linearGradient id="paint1_linear_19_13" x1="24" y1="6" x2="24" y2="54" gradientUnits="userSpaceOnUse">
<stop stop-color="#401BE3"/>
<stop offset="1" stop-color="#E84499"/>
</linearGradient>
<linearGradient id="paint2_linear_19_13" x1="22.4353" y1="7" x2="22.4353" y2="52.4588" gradientUnits="userSpaceOnUse">
<stop offset="0.139423" stop-color="#E84499"/>
<stop offset="1" stop-color="#401BE3"/>
</linearGradient>
</defs>
</svg>
