<svg width="342" height="114" viewBox="0 0 342 114" fill="none" xmlns="http://www.w3.org/2000/svg">
<path d="M122.46 63.6C119.38 63.6 116.7 62.98 114.42 61.74C112.14 60.46 110.38 58.66 109.14 56.34C107.9 54.02 107.28 51.3 107.28 48.18C107.28 45.06 107.9 42.38 109.14 40.14C110.38 37.86 112.14 36.12 114.42 34.92C116.7 33.68 119.38 33.06 122.46 33.06C124.34 33.06 126.2 33.36 128.04 33.96C129.88 34.56 131.4 35.4 132.6 36.48L130.38 41.7C129.34 40.78 128.16 40.08 126.84 39.6C125.56 39.12 124.32 38.88 123.12 38.88C120.52 38.88 118.5 39.7 117.06 41.34C115.66 42.94 114.96 45.24 114.96 48.24C114.96 51.2 115.66 53.54 117.06 55.26C118.5 56.94 120.52 57.78 123.12 57.78C124.28 57.78 125.52 57.54 126.84 57.06C128.16 56.58 129.34 55.86 130.38 54.9L132.6 60.18C131.4 61.22 129.86 62.06 127.98 62.7C126.14 63.3 124.3 63.6 122.46 63.6ZM149.995 63.6C146.955 63.6 144.315 62.98 142.075 61.74C139.835 60.5 138.095 58.74 136.855 56.46C135.615 54.14 134.995 51.42 134.995 48.3C134.995 45.18 135.615 42.48 136.855 40.2C138.095 37.92 139.835 36.16 142.075 34.92C144.315 33.68 146.955 33.06 149.995 33.06C153.035 33.06 155.675 33.68 157.915 34.92C160.155 36.16 161.895 37.92 163.135 40.2C164.375 42.48 164.995 45.18 164.995 48.3C164.995 51.42 164.375 54.14 163.135 56.46C161.895 58.74 160.155 60.5 157.915 61.74C155.675 62.98 153.035 63.6 149.995 63.6ZM149.995 57.9C152.235 57.9 154.035 57.1 155.395 55.5C156.755 53.86 157.435 51.46 157.435 48.3C157.435 45.1 156.755 42.72 155.395 41.16C154.035 39.56 152.235 38.76 149.995 38.76C147.755 38.76 145.955 39.56 144.595 41.16C143.235 42.72 142.555 45.1 142.555 48.3C142.555 51.46 143.235 53.86 144.595 55.5C145.955 57.1 147.755 57.9 149.995 57.9ZM171.185 73.8V33.66H178.505V39.84H177.905C178.505 37.8 179.725 36.16 181.565 34.92C183.445 33.68 185.625 33.06 188.105 33.06C190.665 33.06 192.905 33.68 194.825 34.92C196.785 36.16 198.305 37.92 199.385 40.2C200.465 42.44 201.005 45.14 201.005 48.3C201.005 51.42 200.465 54.14 199.385 56.46C198.305 58.74 196.805 60.5 194.885 61.74C192.965 62.98 190.705 63.6 188.105 63.6C185.665 63.6 183.525 63 181.685 61.8C179.845 60.56 178.605 58.96 177.965 57H178.685V73.8H171.185ZM186.005 57.9C188.245 57.9 190.045 57.1 191.405 55.5C192.765 53.86 193.445 51.46 193.445 48.3C193.445 45.1 192.765 42.72 191.405 41.16C190.045 39.56 188.245 38.76 186.005 38.76C183.765 38.76 181.965 39.56 180.605 41.16C179.245 42.72 178.565 45.1 178.565 48.3C178.565 51.46 179.245 53.86 180.605 55.5C181.965 57.1 183.765 57.9 186.005 57.9ZM209.216 73.8L215.336 60.3V63.42L202.436 33.66H210.416L219.536 56.4H217.736L227.036 33.66H234.596L216.956 73.8H209.216ZM238.158 63V33.66H245.478V40.74H244.878C245.438 38.34 246.538 36.52 248.178 35.28C249.818 34 251.998 33.26 254.718 33.06L256.998 32.88L257.478 39.24L253.158 39.66C250.718 39.9 248.878 40.66 247.638 41.94C246.398 43.18 245.778 44.94 245.778 47.22V63H238.158Z" fill="white"/>
<path d="M258.654 63L259.974 54.66H268.374L267.054 63H258.654ZM284.041 63.6C282.241 63.6 280.601 63.2 279.121 62.4C277.641 61.56 276.441 60.46 275.521 59.1C274.641 57.74 274.201 56.22 274.201 54.54C274.201 52.46 274.781 50.78 275.941 49.5C277.101 48.18 278.901 47.2 281.341 46.56C283.781 45.92 286.901 45.6 290.701 45.6H295.501L294.841 49.92H291.061C288.701 49.92 286.821 50.04 285.421 50.28C284.021 50.52 283.021 50.94 282.421 51.54C281.821 52.14 281.521 52.98 281.521 54.06C281.521 55.46 281.981 56.54 282.901 57.3C283.861 58.06 285.021 58.44 286.381 58.44C287.661 58.44 288.821 58.18 289.861 57.66C290.901 57.1 291.781 56.32 292.501 55.32C293.221 54.28 293.681 53.06 293.881 51.66L295.021 44.52C295.341 42.64 295.041 41.2 294.121 40.2C293.241 39.2 291.681 38.7 289.441 38.7C287.681 38.7 285.961 38.94 284.281 39.42C282.641 39.9 281.001 40.66 279.361 41.7L277.681 36.54C278.681 35.82 279.861 35.2 281.221 34.68C282.621 34.16 284.101 33.76 285.661 33.48C287.261 33.2 288.841 33.06 290.401 33.06C293.561 33.06 296.041 33.64 297.841 34.8C299.641 35.96 300.861 37.54 301.501 39.54C302.141 41.54 302.261 43.82 301.861 46.38L299.221 63H292.201L293.161 56.76H293.761C293.201 58.32 292.401 59.62 291.361 60.66C290.361 61.66 289.221 62.4 287.941 62.88C286.701 63.36 285.401 63.6 284.041 63.6ZM312.113 27.36L313.313 20.04H321.653L320.453 27.36H312.113ZM306.833 63L311.513 33.66H319.013L314.333 63H306.833Z" fill="url(#paint0_linear_23_22)"/>
<path d="M46.0732 0C71.5183 0.000235087 92.1455 20.6281 92.1455 46.0732C92.1453 71.5182 71.5182 92.1453 46.0732 92.1455C20.6281 92.1455 0.000235056 71.5183 0 46.0732C0 20.6279 20.6279 0 46.0732 0ZM46.0732 3.66797C22.6534 3.66797 3.66797 22.6534 3.66797 46.0732C3.6682 69.4929 22.6536 88.4785 46.0732 88.4785C69.4927 88.4783 88.4783 69.4927 88.4785 46.0732C88.4785 22.6536 69.4929 3.6682 46.0732 3.66797Z" fill="url(#paint1_linear_23_22)"/>
<path d="M45.008 72.74C40.42 72.74 36.3253 71.8767 32.724 70.15C29.172 68.374 26.36 65.7347 24.288 62.232C22.2653 58.7293 21.254 54.3387 21.254 49.06C21.254 44.8173 21.8707 40.8953 23.104 37.294C24.3867 33.6433 26.212 30.4613 28.58 27.748C30.9973 25.0347 33.9573 22.9133 37.46 21.384C40.9627 19.8547 44.934 19.09 49.374 19.09C52.9753 19.09 56.3053 19.6573 59.364 20.792C62.4227 21.9267 64.8647 23.4313 66.69 25.306L62.842 32.854C60.8687 31.078 58.7473 29.746 56.478 28.858C54.2087 27.97 51.7667 27.526 49.152 27.526C45.3533 27.526 42.122 28.4633 39.458 30.338C36.794 32.1633 34.7713 34.6793 33.39 37.886C32.0087 41.0927 31.318 44.7187 31.318 48.764C31.318 52.4147 31.8607 55.3993 32.946 57.718C34.0807 59.9873 35.7333 61.6647 37.904 62.75C40.124 63.786 42.8373 64.304 46.044 64.304C48.3627 64.304 50.632 63.9093 52.852 63.12C55.072 62.3307 57.3413 61.048 59.66 59.272L62.398 66.746C60.9673 68.0287 59.29 69.114 57.366 70.002C55.4913 70.89 53.4933 71.556 51.372 72C49.2507 72.4933 47.1293 72.74 45.008 72.74Z" fill="white"/>
<defs>
<linearGradient id="paint0_linear_23_22" x1="223.5" y1="2" x2="223.5" y2="114" gradientUnits="userSpaceOnUse">
<stop offset="0.375" stop-color="#E84499"/>
<stop offset="1" stop-color="#401BE3"/>
</linearGradient>
<linearGradient id="paint1_linear_23_22" x1="46.0728" y1="0" x2="46.0728" y2="92.1455" gradientUnits="userSpaceOnUse">
<stop stop-color="#401BE3"/>
<stop offset="1" stop-color="#E84499"/>
</linearGradient>
</defs>
</svg>
